<?xml version="1.0" standalone="no"?>
<!DOCTYPE svg PUBLIC "-//W3C//DTD SVG 20010904//EN"
 "http://www.w3.org/TR/2001/REC-SVG-20010904/DTD/svg10.dtd">
<svg version="1.0" xmlns="http://www.w3.org/2000/svg"
 width="1280.000000pt" height="574.000000pt" viewBox="0 0 1280.000000 574.000000"
 preserveAspectRatio="xMidYMid meet">
<metadata>
Created by potrace 1.15, written by Peter Selinger 2001-2017
</metadata>
<g transform="translate(0.000000,574.000000) scale(0.100000,-0.100000)"
fill="#000000" stroke="none">
<path d="M896 3899 c-293 -31 -488 -151 -585 -359 -95 -205 -42 -447 129 -590
119 -98 258 -157 542 -230 106 -28 221 -62 255 -76 173 -73 189 -252 30 -340
-48 -26 -61 -29 -152 -29 -116 0 -173 20 -238 83 -48 46 -71 91 -93 177 l-17
68 -76 -6 c-42 -4 -161 -11 -266 -17 -254 -15 -239 -10 -230 -68 20 -144 73
-269 160 -380 136 -174 363 -252 735 -252 341 0 533 62 695 225 129 129 185
263 185 445 0 157 -41 267 -137 370 -123 134 -305 211 -713 305 -187 43 -251
71 -275 122 -36 76 25 161 131 183 64 14 173 1 223 -25 48 -24 98 -90 117
-152 10 -32 20 -61 23 -64 8 -8 558 24 567 34 12 12 -24 156 -56 226 -61 129
-137 206 -267 270 -153 76 -424 108 -687 80z"/>
<path d="M2912 3868 c-8 -10 -555 -1454 -713 -1880 l-28 -78 313 0 313 0 48
160 48 160 342 0 342 0 48 -160 48 -160 320 0 c299 0 319 1 315 18 -11 41
-722 1928 -731 1940 -7 9 -86 12 -332 12 -246 0 -325 -3 -333 -12z m434 -880
c73 -240 92 -313 82 -320 -17 -10 -369 -10 -385 0 -10 6 3 60 53 223 136 445
135 444 146 426 5 -10 52 -158 104 -329z"/>
<path d="M4613 3873 c-10 -4 -13 -210 -13 -984 l0 -979 305 0 305 0 0 378 c0
207 3 387 6 400 l6 22 373 0 373 0 6 23 c8 29 8 306 0 346 l-6 31 -377 2 -376
3 -3 148 c-1 90 2 155 8 167 10 19 22 20 446 20 l434 0 -2 213 -3 212 -735 2
c-404 1 -741 -1 -747 -4z"/>
<path d="M6533 3873 c-10 -4 -13 -218 -13 -1024 l0 -1019 863 2 862 3 0 230 0
230 -542 3 -543 2 0 195 0 195 488 2 487 3 3 206 2 206 -31 7 c-17 3 -238 6
-490 6 l-459 0 0 155 0 155 524 0 525 0 6 54 c9 70 2 367 -8 384 -6 9 -184 12
-835 11 -455 0 -833 -3 -839 -6z"/>
<path d="M8473 3873 c-10 -3 -13 -62 -13 -243 0 -208 2 -239 16 -244 9 -3 145
-6 304 -6 l288 0 6 -22 c3 -13 6 -344 6 -735 l0 -713 305 0 305 0 0 735 0 735
298 0 c163 0 303 4 310 8 9 7 12 63 10 248 l-3 239 -910 2 c-500 1 -916 -1
-922 -4z"/>
<path d="M10491 3871 c-10 -7 73 -137 363 -570 l376 -560 2 -413 3 -413 308
-3 307 -2 0 410 0 410 380 570 c347 521 378 570 357 575 -12 3 -164 4 -337 3
l-314 -3 -191 -319 c-105 -175 -195 -319 -200 -320 -6 0 -93 137 -195 305
-102 169 -191 314 -199 323 -12 14 -52 16 -330 16 -174 0 -322 -4 -330 -9z"/>
</g>
</svg>
